<?xml version="1.0" encoding="utf-8"?>
<!-- Generator: Adobe Illustrator 27.5.0, SVG Export Plug-In . SVG Version: 6.00 Build 0)  -->
<svg version="1.1" id="Layer_1" xmlns="http://www.w3.org/2000/svg" xmlns:xlink="http://www.w3.org/1999/xlink" x="0px" y="0px"
	 viewBox="0 0 510.2 350.1" style="enable-background:new 0 0 510.2 350.1;" xml:space="preserve">
<style type="text/css">
	.st0{font-family:'Arial-BoldMT';}
	.st1{font-size:8px;}
	.st2{fill:#FFFFFF;}
	.st3{fill:none;stroke:#BE2026;stroke-miterlimit:10;}
	.st4{fill:#BE2026;}
	.st5{fill:#FFFFFF;stroke:#BE2026;stroke-miterlimit:10;}
	.st6{font-size:6px;}
	.st7{letter-spacing:33;}
	.st8{fill:#D3E2BA;stroke:#000000;stroke-width:0.5;stroke-miterlimit:10;}
	.st9{fill:#EAD6D8;stroke:#000000;stroke-width:0.5;stroke-miterlimit:10;}
	.st10{clip-path:url(#SVGID_00000159449060392709235570000012527172556121139620_);}
	.st11{fill:none;stroke:#BCBEC0;stroke-miterlimit:10;}
	.st12{fill:none;stroke:#BE2026;stroke-width:3;stroke-miterlimit:10;}
	.st13{fill:none;stroke:#6D6E71;stroke-miterlimit:10;}
	.st14{fill:#6D6E71;}
	.st15{fill:none;stroke:#6D6E71;stroke-width:2;stroke-miterlimit:10;}
	.st16{fill:#FFFFFF;stroke:#000000;stroke-miterlimit:10;}
	.st17{fill:none;stroke:#BE2026;stroke-width:2;stroke-miterlimit:10;}
	.st18{font-size:10px;}
	.st19{fill:none;stroke:#000000;stroke-miterlimit:10;}
	.st20{fill:none;stroke:#000000;stroke-miterlimit:10;stroke-dasharray:1.9933,1.9933;}
	.st21{fill:none;stroke:#000000;stroke-miterlimit:10;stroke-dasharray:2;}
</style>
<text transform="matrix(1 0 0 1 8.7676 17.0928)" class="st0 st1">Figure 1: Epiregulon constructs GRNs to infer TF activity at the single cell level </text>
<text transform="matrix(1 0 0 1 131.2224 52.2973)" class="st0 st1">2. Link peaks to genes</text>
<text transform="matrix(1 0 0 1 241.6367 52.2972)" class="st0 st1">3. Determine TF occupancy</text>
<g>
	<g>
		<path class="st2" d="M39,451.4c14.5-1.9,29.4,2.9,39.9,13.1c2.3,2.2,5.9-1.3,3.5-3.5c-11.4-11-27.7-16.5-43.5-14.5
			c-1.3,0.2-2.5,1-2.5,2.5C36.5,450.1,37.7,451.6,39,451.4L39,451.4z"/>
	</g>
</g>
<g>
	<g>
		<path class="st3" d="M158,102c0-5.5,6.4-10,14.2-10c6.4,0,11.8,3,13.6,7.1"/>
		<g>
			<path class="st4" d="M186.5,102c-0.8-1.3-2.1-2.8-3.3-3.6l2.5,0.3l2.1-1.4C187.1,98.6,186.7,100.5,186.5,102z"/>
		</g>
	</g>
</g>
<line class="st3" x1="126.5" y1="103.5" x2="199" y2="103.5"/>
<rect x="148" y="98" class="st5" width="20" height="10"/>
<text transform="matrix(1 0 0 1 152.5107 104.4648)" class="st0 st6">RE</text>
<line class="st3" x1="189.5" y1="104" x2="189.5" y2="84"/>
<g>
	<g>
		<line class="st3" x1="189.5" y1="84.5" x2="196.5" y2="84.5"/>
		<g>
			<path class="st4" d="M199.5,84.5c-1.4,0.5-3.2,1.4-4.3,2.4l0.9-2.4l-0.9-2.4C196.3,83.1,198.1,84,199.5,84.5z"/>
		</g>
	</g>
</g>
<g>
	<g>
		<path class="st3" d="M280,102.8c0-5.5,6.4-10,14.2-10c6.4,0,11.8,3,13.6,7.1"/>
		<g>
			<path class="st4" d="M308.5,102.8c-0.8-1.3-2.1-2.8-3.3-3.6l2.5,0.3l2.1-1.4C309.1,99.4,308.6,101.3,308.5,102.8z"/>
		</g>
	</g>
</g>
<line class="st3" x1="248.5" y1="104.3" x2="321" y2="104.3"/>
<rect x="270" y="98.8" class="st5" width="20" height="10"/>
<text transform="matrix(1 0 0 1 274.471 105.2769)" class="st0 st6">RE</text>
<line class="st3" x1="311.5" y1="104.8" x2="311.5" y2="84.8"/>
<g>
	<g>
		<line class="st3" x1="311.5" y1="85.3" x2="318.4" y2="85.3"/>
		<g>
			<path class="st4" d="M321.5,85.3c-1.4,0.5-3.2,1.4-4.3,2.4l0.9-2.4l-0.9-2.4C318.3,83.9,320,84.8,321.5,85.3z"/>
		</g>
	</g>
</g>
<text transform="matrix(1 0 0 1 203.2861 85.2861)" class="st0 st6">TG</text>
<text transform="matrix(1 0 0 1 323.2423 86.5676)" class="st0 st6">TG</text>
<path class="st5" d="M280,69.5L280,69.5c-4.7,0-8.5,3.8-8.5,8.5v5c0,4.7,3.8,8.5,8.5,8.5l0,0c4.7,0,8.5-3.8,8.5-8.5v-5
	C288.5,73.3,284.7,69.5,280,69.5z"/>
<text transform="matrix(0.9865 0 0 1 275.29 83.1725)" class="st0 st6">TF</text>
<text transform="matrix(1 0 0 1 360.5427 52.2972)" class="st0 st1">4. Prune network by co-occurrence</text>
<text transform="matrix(1 0 0 1 360.5427 61.8972)" class="st0 st1 st7"> </text>
<text transform="matrix(1 0 0 1 396.5427 61.8972)" class="st0 st1">(optional) </text>
<ellipse class="st8" cx="381" cy="98" rx="20.5" ry="16.5"/>
<ellipse class="st9" cx="433" cy="98" rx="20.5" ry="16.5"/>
<text transform="matrix(1 0 0 1 369.2393 98.4157)" class="st0 st6">TF, RE &amp; </text>
<text transform="matrix(1 0 0 1 369.2393 105.6157)" class="st0 st6">TG</text>
<text transform="matrix(1 0 0 1 424.6209 98.4157)" class="st0 st6">TF, RE </text>
<ellipse class="st9" cx="474" cy="98" rx="20.5" ry="16.5"/>
<text transform="matrix(1 0 0 1 467.3555 98.4157)" class="st0 st6">TG</text>
<text transform="matrix(1 0 0 1 357.6209 76.9443)" class="st0 st6">likely regulation</text>
<text transform="matrix(1 0 0 1 426.5147 76.9443)" class="st0 st6">unlikely regulation</text>
<g>
	<g>
		<defs>
			<rect id="SVGID_1_" x="18" y="59" width="90" height="74"/>
		</defs>
		<clipPath id="SVGID_00000133509400521150466130000001525862363564871303_">
			<use xlink:href="#SVGID_1_"  style="overflow:visible;"/>
		</clipPath>
		<g id="CSZOxq_3_" style="clip-path:url(#SVGID_00000133509400521150466130000001525862363564871303_);">
			
				<image style="overflow:visible;enable-background:new    ;" width="4812" height="2512" id="CSZOxq_4_" xlink:href="3160F053304BAA7A.jpeg"  transform="matrix(0.1413 0 0 0.1413 -2.1862 10.4853)">
			</image>
		</g>
	</g>
</g>
<rect x="9" y="40" class="st11" width="110.8" height="93"/>
<rect x="122.8" y="40" class="st11" width="110.9" height="93"/>
<rect x="237.1" y="40" class="st11" width="110.9" height="93"/>
<rect x="351.6" y="40" class="st11" width="149.9" height="93"/>
<text transform="matrix(1 0 0 1 11.6973 52.2974)" class="st0 st1">1. Aggregate similar cells</text>
<path class="st5" d="M184,271.5L184,271.5c-4.7,0-8.5,3.8-8.5,8.5l0,0c0,4.7,3.8,8.5,8.5,8.5l0,0c4.7,0,8.5-3.8,8.5-8.5l0,0
	C192.5,275.3,188.7,271.5,184,271.5z"/>
<text transform="matrix(0.9865 0 0 1 179.29 282.1725)" class="st0 st6">TF1</text>
<g>
	<g>
		<line class="st3" x1="183.5" y1="288.5" x2="183.5" y2="309.5"/>
		<g>
			<path class="st4" d="M183.5,312.5c-0.5-1.4-1.4-3.2-2.4-4.3l2.4,0.9l2.4-0.9C184.9,309.3,184,311.1,183.5,312.5z"/>
		</g>
	</g>
</g>
<g>
	<g>
		<line class="st3" x1="189.5" y1="286.5" x2="206.6" y2="307.2"/>
		<g>
			<path class="st4" d="M208.5,309.5c-1.3-0.8-3.1-1.5-4.6-1.8l2.4-0.9l1.3-2.2C207.6,306.1,208,308.1,208.5,309.5z"/>
		</g>
	</g>
</g>
<g>
	<g>
		<line class="st3" x1="176.8" y1="274.5" x2="164" y2="272.2"/>
		<g>
			<path class="st4" d="M161,271.6c1.5-0.3,3.4-0.8,4.6-1.6l-1.3,2.2l0.4,2.5C163.9,273.6,162.3,272.4,161,271.6z"/>
		</g>
	</g>
</g>
<circle class="st3" cx="184" cy="317" r="4.5"/>
<circle class="st3" cx="209" cy="315" r="4.5"/>
<circle class="st3" cx="157" cy="272" r="4.5"/>
<path class="st5" d="M309.2,271.2L309.2,271.2c-4.7,0-8.5,3.8-8.5,8.5l0,0c0,4.7,3.8,8.5,8.5,8.5l0,0c4.7,0,8.5-3.8,8.5-8.5l0,0
	C317.7,275,313.8,271.2,309.2,271.2z"/>
<text transform="matrix(0.9865 0 0 1 304.459 281.9001)" class="st0 st6">TF</text>
<g>
	<g>
		<line class="st3" x1="308.7" y1="288.2" x2="308.7" y2="309.2"/>
		<g>
			<path class="st4" d="M308.7,312.2c-0.5-1.4-1.4-3.2-2.4-4.3l2.4,0.9l2.4-0.9C310.1,309,309.2,310.8,308.7,312.2z"/>
		</g>
	</g>
</g>
<g>
	<g>
		<line class="st3" x1="315.7" y1="285.7" x2="328.8" y2="301.9"/>
		<g>
			<path class="st4" d="M330.7,304.2c-1.3-0.8-3.1-1.6-4.5-1.8l2.4-0.8l1.3-2.2C329.8,300.9,330.2,302.8,330.7,304.2z"/>
		</g>
	</g>
</g>
<g>
	<g>
		<line class="st12" x1="300.7" y1="275.7" x2="287" y2="269.8"/>
		<g>
			<path class="st4" d="M278.7,266.2c4.5,0.2,10.5-0.1,14.6-1.5l-5.2,5.5l-0.5,7.6C285.7,273.9,282,269.4,278.7,266.2z"/>
		</g>
	</g>
</g>
<circle class="st3" cx="309.2" cy="316.7" r="4.5"/>
<circle class="st3" cx="333.2" cy="307.7" r="4.5"/>
<circle class="st3" cx="275.2" cy="266.7" r="4.5"/>
<path class="st13" d="M381.2,271.2L381.2,271.2c-4.7,0-8.5,3.8-8.5,8.5l0,0c0,4.7,3.8,8.5,8.5,8.5l0,0c4.7,0,8.5-3.8,8.5-8.5l0,0
	C389.7,275,385.8,271.2,381.2,271.2z"/>
<text transform="matrix(0.9865 0 0 1 376.459 281.9001)" class="st0 st6">TF</text>
<g>
	<g>
		<line class="st13" x1="380.7" y1="288.2" x2="380.7" y2="309.2"/>
		<g>
			<path class="st14" d="M380.7,312.2c-0.5-1.4-1.4-3.2-2.4-4.3l2.4,0.9l2.4-0.9C382.1,309,381.2,310.8,380.7,312.2z"/>
		</g>
	</g>
</g>
<g>
	<g>
		<line class="st15" x1="387.7" y1="285.7" x2="398.9" y2="299.5"/>
		<g>
			<path class="st14" d="M402.7,304.2c-2.6-1.5-6.2-3.1-9.1-3.6l4.8-1.7l2.6-4.3C400.9,297.5,401.7,301.4,402.7,304.2z"/>
		</g>
	</g>
</g>
<g>
	<g>
		<line class="st13" x1="372.7" y1="275.7" x2="353.4" y2="267.4"/>
		<g>
			<path class="st14" d="M350.7,266.2c1.5,0.1,3.5,0,4.9-0.5l-1.7,1.8l-0.1,2.5C353,268.8,351.8,267.3,350.7,266.2z"/>
		</g>
	</g>
</g>
<circle class="st13" cx="381.2" cy="316.7" r="4.5"/>
<circle class="st13" cx="405.2" cy="307.7" r="4.5"/>
<circle class="st13" cx="347.2" cy="266.7" r="4.5"/>
<path class="st16" d="M460,270.5L460,270.5c-4.7,0-8.5,3.8-8.5,8.5l0,0c0,4.7,3.8,8.5,8.5,8.5l0,0c4.7,0,8.5-3.8,8.5-8.5l0,0
	C468.5,274.3,464.7,270.5,460,270.5z"/>
<text transform="matrix(0.9865 0 0 1 455.29 281.1725)" class="st0 st6">TF</text>
<g>
	<g>
		<line class="st13" x1="466.5" y1="285" x2="479.6" y2="301.2"/>
		<g>
			<path class="st14" d="M481.5,303.5c-1.3-0.8-3.1-1.6-4.5-1.8l2.4-0.8l1.3-2.2C480.6,300.1,481,302.1,481.5,303.5z"/>
		</g>
	</g>
</g>
<g>
	<g>
		<line class="st17" x1="451.5" y1="275" x2="435" y2="267.9"/>
		<g>
			<path class="st4" d="M429.5,265.5c3,0.2,7-0.1,9.7-1l-3.5,3.7l-0.3,5C434.2,270.6,431.7,267.6,429.5,265.5z"/>
		</g>
	</g>
</g>
<circle class="st13" cx="484" cy="307" r="4.5"/>
<circle class="st3" cx="426" cy="266" r="4.5"/>
<text transform="matrix(1 0 0 1 416.9839 291.5415)" class="st0 st18">=</text>
<text transform="matrix(1 0 0 1 337.8279 291.6001)" class="st0 st18">-</text>
<path class="st5" d="M67.2,271.2L67.2,271.2c-4.7,0-8.5,3.8-8.5,8.5l0,0c0,4.7,3.8,8.5,8.5,8.5l0,0c4.7,0,8.5-3.8,8.5-8.5l0,0
	C75.7,275,71.8,271.2,67.2,271.2z"/>
<text transform="matrix(0.9865 0 0 1 62.436 281.8771)" class="st0 st6">TF</text>
<g>
	<g>
		<line class="st3" x1="66.7" y1="288.2" x2="66.7" y2="309.2"/>
		<g>
			<path class="st4" d="M66.7,312.2c-0.5-1.4-1.4-3.2-2.4-4.3l2.4,0.9l2.4-0.9C68.1,309,67.2,310.8,66.7,312.2z"/>
		</g>
	</g>
</g>
<g>
	<g>
		<line class="st3" x1="73.7" y1="285.7" x2="86.8" y2="301.9"/>
		<g>
			<path class="st4" d="M88.7,304.2c-1.3-0.8-3.1-1.6-4.5-1.8l2.4-0.8l1.3-2.2C87.8,300.8,88.2,302.8,88.7,304.2z"/>
		</g>
	</g>
</g>
<g>
	<g>
		<line class="st3" x1="58.7" y1="275.7" x2="39.4" y2="267.4"/>
		<g>
			<path class="st4" d="M36.7,266.2c1.5,0.1,3.5,0,4.9-0.5l-1.7,1.8l-0.2,2.5C39,268.8,37.7,267.2,36.7,266.2z"/>
		</g>
	</g>
</g>
<circle class="st3" cx="67.2" cy="316.7" r="4.5"/>
<circle class="st3" cx="91.2" cy="307.7" r="4.5"/>
<circle class="st3" cx="33" cy="265" r="4.5"/>
<path class="st5" d="M226.1,271.2L226.1,271.2c-4.7,0-8.5,3.8-8.5,8.5l0,0c0,4.7,3.8,8.5,8.5,8.5l0,0c4.7,0,8.5-3.8,8.5-8.5l0,0
	C234.6,275,230.8,271.2,226.1,271.2z"/>
<text transform="matrix(0.9865 0 0 1 221.436 281.8771)" class="st0 st6">TF2</text>
<g>
	<g>
		<line class="st3" x1="218.5" y1="282.5" x2="185.8" y2="310.5"/>
		<g>
			<path class="st4" d="M183.5,312.5c0.7-1.3,1.5-3.1,1.7-4.6l0.9,2.4l2.2,1.2C186.8,311.5,184.9,312,183.5,312.5z"/>
		</g>
	</g>
</g>
<g>
	<g>
		<line class="st3" x1="223.5" y1="287.5" x2="210.1" y2="308"/>
		<g>
			<path class="st4" d="M208.5,310.5c0.3-1.5,0.5-3.4,0.3-4.9l1.5,2l2.5,0.6C211.4,308.6,209.7,309.6,208.5,310.5z"/>
		</g>
	</g>
</g>
<g>
	<g>
		<line class="st3" x1="234.6" y1="280.7" x2="248.6" y2="298.1"/>
		<g>
			<path class="st4" d="M250.5,300.5c-1.3-0.8-3.1-1.6-4.5-1.9l2.4-0.8l1.3-2.2C249.6,297.1,250,299.1,250.5,300.5z"/>
		</g>
	</g>
</g>
<circle class="st3" cx="253" cy="303" r="4.5"/>
<rect x="147.5" y="233.9" class="st11" width="115" height="93"/>
<rect x="265.9" y="233.9" class="st11" width="235.6" height="93"/>
<rect x="10.4" y="233.9" class="st11" width="133.1" height="93"/>
<text transform="matrix(1 0 0 1 328.1778 246.3745)" class="st0 st1">9. Perform differential network</text>
<text transform="matrix(1 0 0 1 292.8442 261.6812)" class="st0 st6">cell state A</text>
<text transform="matrix(1 0 0 1 361.4476 260.1724)" class="st0 st6">cell state B</text>
<text transform="matrix(1 0 0 1 154.4452 246.3745)" class="st0 st1">8. Find interaction partners</text>
<text transform="matrix(1 0 0 1 16.4353 246.3745)" class="st0 st1">7. Perform Geneset enrichment</text>
<g>
	<g>
		<g>
			<g>
				<line class="st19" x1="191.5" y1="211.4" x2="191.5" y2="166.7"/>
				<g>
					<path d="M191.5,163.7c0.5,1.4,1.4,3.2,2.4,4.3l-2.4-0.9l-2.4,0.9C190.1,166.9,191,165.1,191.5,163.7z"/>
				</g>
			</g>
		</g>
		<g>
			<g>
				<line class="st19" x1="191.5" y1="211.4" x2="236.5" y2="211.4"/>
				<g>
					<path d="M239.5,211.4c-1.4,0.5-3.2,1.4-4.3,2.4l0.9-2.4l-0.9-2.4C236.3,210,238.1,210.9,239.5,211.4z"/>
				</g>
			</g>
		</g>
	</g>
	<g>
		<g>
			<path class="st4" d="M202.9,176.9c1.9,0,1.9-3,0-3S200.9,176.9,202.9,176.9L202.9,176.9z"/>
		</g>
	</g>
	<g>
		<g>
			<path class="st4" d="M198.1,186.3c1.9,0,1.9-3,0-3C196.2,183.3,196.2,186.3,198.1,186.3L198.1,186.3z"/>
		</g>
	</g>
	<g>
		<g>
			<path class="st4" d="M205.4,193.7c1.9,0,1.9-3,0-3C203.4,190.7,203.4,193.7,205.4,193.7L205.4,193.7z"/>
		</g>
	</g>
	<g>
		<g>
			<path class="st4" d="M212.6,203.6c1.9,0,1.9-3,0-3C210.7,200.6,210.7,203.6,212.6,203.6L212.6,203.6z"/>
		</g>
	</g>
	<g>
		<g>
			<path class="st4" d="M216.5,197.1c1.9,0,1.9-3,0-3C214.6,194.1,214.6,197.1,216.5,197.1L216.5,197.1z"/>
		</g>
	</g>
	<g>
		<g>
			<path class="st4" d="M230.5,190.7c1.9,0,1.9-3,0-3C228.5,187.7,228.5,190.7,230.5,190.7L230.5,190.7z"/>
		</g>
	</g>
	<g>
		<g>
			<path class="st4" d="M227.1,200.6c1.9,0,1.9-3,0-3S225.2,200.6,227.1,200.6L227.1,200.6z"/>
		</g>
	</g>
	<g>
		<g>
			<path class="st4" d="M232.7,178.4c1.9,0,1.9-3,0-3S230.8,178.4,232.7,178.4L232.7,178.4z"/>
		</g>
	</g>
	<g>
		<g>
			<path class="st4" d="M222.7,193.9c1.9,0,1.9-3,0-3C220.7,190.9,220.7,193.9,222.7,193.9L222.7,193.9z"/>
		</g>
	</g>
	<g>
		<g>
			<path class="st4" d="M228.9,180.9c1.9,0,1.9-3,0-3C227,177.9,227,180.9,228.9,180.9L228.9,180.9z"/>
		</g>
	</g>
	<path class="st19" d="M198.6,168.3c0,18.5,7.5,33.6,16.8,33.6s16.8-15,16.8-33.6"/>
</g>
<g>
	<g>
		<g>
			<g>
				<line class="st19" x1="36.4" y1="211" x2="36.4" y2="166.3"/>
				<g>
					<path d="M36.4,163.3c0.5,1.4,1.4,3.2,2.4,4.3l-2.4-0.9l-2.4,0.9C35,166.5,35.9,164.7,36.4,163.3z"/>
				</g>
			</g>
		</g>
		<g>
			<g>
				<line class="st19" x1="36.4" y1="211" x2="81.4" y2="211"/>
				<g>
					<path d="M84.4,211c-1.4,0.5-3.2,1.4-4.3,2.4L81,211l-0.9-2.4C81.2,209.6,83,210.5,84.4,211z"/>
				</g>
			</g>
		</g>
	</g>
	<g>
		<g>
			<path class="st4" d="M45.2,199.9c1.9,0,1.9-3,0-3S43.3,199.9,45.2,199.9L45.2,199.9z"/>
		</g>
	</g>
	<g>
		<g>
			<path class="st4" d="M51.7,203.7c1.9,0,1.9-3,0-3S49.8,203.7,51.7,203.7L51.7,203.7z"/>
		</g>
	</g>
	<g>
		<g>
			<path class="st4" d="M50.6,198.7c1.9,0,1.9-3,0-3S48.7,198.7,50.6,198.7L50.6,198.7z"/>
		</g>
	</g>
	<g>
		<g>
			<path class="st4" d="M45.6,194.3c1.9,0,1.9-3,0-3S43.6,194.3,45.6,194.3L45.6,194.3z"/>
		</g>
	</g>
	<g>
		<g>
			<path class="st4" d="M55.6,194.3c1.9,0,1.9-3,0-3S53.7,194.3,55.6,194.3L55.6,194.3z"/>
		</g>
	</g>
	<g>
		<g>
			<path class="st4" d="M70.7,190.1c1.9,0,1.9-3,0-3S68.8,190.1,70.7,190.1L70.7,190.1z"/>
		</g>
	</g>
	<g>
		<g>
			<path class="st4" d="M70.1,196.3c1.9,0,1.9-3,0-3S68.2,196.3,70.1,196.3L70.1,196.3z"/>
		</g>
	</g>
	<g>
		<g>
			<path class="st4" d="M70.1,184.9c1.9,0,1.9-3,0-3S68.2,184.9,70.1,184.9L70.1,184.9z"/>
		</g>
	</g>
	<g>
		<g>
			<path class="st4" d="M70.1,178c1.9,0,1.9-3,0-3S68.2,178,70.1,178L70.1,178z"/>
		</g>
	</g>
	<g>
		<g>
			<path class="st4" d="M71.8,172.6c1.9,0,1.9-3,0-3S69.9,172.6,71.8,172.6L71.8,172.6z"/>
		</g>
	</g>
	<g>
		<g>
			<path class="st4" d="M74,185.4c1.9,0,1.9-3,0-3S72.1,185.4,74,185.4L74,185.4z"/>
		</g>
	</g>
	<line class="st19" x1="42" y1="197.8" x2="60" y2="197.8"/>
	<line class="st19" x1="63" y1="183.6" x2="81" y2="183.6"/>
</g>
<g>
	<g>
		<path class="st4" d="M147.8,170.4c1.9,0,1.9-3,0-3S145.8,170.4,147.8,170.4L147.8,170.4z"/>
	</g>
</g>
<g>
	<g>
		<g>
			<g>
				<line class="st19" x1="109.6" y1="210.8" x2="109.6" y2="166.1"/>
				<g>
					<path d="M109.6,163.1c0.5,1.4,1.4,3.2,2.4,4.3l-2.4-0.9l-2.4,0.9C108.2,166.2,109.1,164.5,109.6,163.1z"/>
				</g>
			</g>
		</g>
		<g>
			<g>
				<line class="st19" x1="109.6" y1="210.8" x2="154.6" y2="210.8"/>
				<g>
					<path d="M157.6,210.8c-1.4,0.5-3.2,1.4-4.3,2.4l0.9-2.4l-0.9-2.4C154.4,209.3,156.2,210.2,157.6,210.8z"/>
				</g>
			</g>
		</g>
	</g>
	<g>
		<g>
			<path class="st4" d="M132.7,171.6c1.9,0,1.9-3,0-3S130.8,171.6,132.7,171.6L132.7,171.6z"/>
		</g>
	</g>
	<g>
		<g>
			<path class="st4" d="M123.8,203.7c1.9,0,1.9-3,0-3S121.8,203.7,123.8,203.7L123.8,203.7z"/>
		</g>
	</g>
	<g>
		<g>
			<path class="st4" d="M129.1,199.8c1.9,0,1.9-3,0-3C127.1,196.8,127.1,199.8,129.1,199.8L129.1,199.8z"/>
		</g>
	</g>
	<g>
		<g>
			<path class="st4" d="M134.4,188.9c1.9,0,1.9-3,0-3C132.4,185.9,132.4,188.9,134.4,188.9L134.4,188.9z"/>
		</g>
	</g>
	<g>
		<g>
			<path class="st4" d="M143.3,179c1.9,0,1.9-3,0-3S141.4,179,143.3,179L143.3,179z"/>
		</g>
	</g>
	<g>
		<g>
			<path class="st4" d="M124.9,193.8c1.9,0,1.9-3,0-3C122.9,190.8,122.9,193.8,124.9,193.8L124.9,193.8z"/>
		</g>
	</g>
	<g>
		<g>
			<path class="st4" d="M130.4,181.5c1.9,0,1.9-3,0-3S128.5,181.5,130.4,181.5L130.4,181.5z"/>
		</g>
	</g>
	<line class="st19" x1="116.6" y1="203.7" x2="145.6" y2="165.7"/>
</g>
<text transform="matrix(1 0 0 1 189.2852 158.4258)" class="st0 st6">Mutual information</text>
<text transform="matrix(1 0 0 1 118.3742 158.7304)" class="st0 st6">Correlation</text>
<rect x="9.6" y="138.5" class="st11" width="284.9" height="93"/>
<text transform="matrix(1 0 0 1 46.4996 157.4282)" class="st0 st6">Wilcoxon</text>
<text transform="matrix(1 0 0 1 112.6633 147.9095)" class="st0 st1">5. Add weights</text>
<text transform="matrix(1 0 0 1 125.1689 220.4487)" class="st0 st6">TF</text>
<text transform="matrix(1 0 0 1 212.7032 220.4489)" class="st0 st6">TF</text>
<text transform="matrix(0 -1 1 0 188.1951 194.0041)" class="st0 st6">target</text>
<text transform="matrix(0 -1 1 0 105.1951 194.0041)" class="st0 st6">target</text>
<text transform="matrix(1 0 0 1 45.2019 219.7303)" class="st0 st6">OFF       ON</text>
<path class="st5" d="M377.1,175.1L377.1,175.1c-4.7,0-8.5,3.8-8.5,8.5l0,0c0,4.7,3.8,8.5,8.5,8.5l0,0c4.7,0,8.5-3.8,8.5-8.5l0,0
	C385.6,178.9,381.8,175.1,377.1,175.1z"/>
<text transform="matrix(0.9865 0 0 1 372.3662 185.7844)" class="st0 st6">TF</text>
<g>
	<g>
		<line class="st3" x1="376.6" y1="192.1" x2="376.6" y2="213.1"/>
		<g>
			<path class="st4" d="M376.6,216.1c-0.5-1.4-1.4-3.2-2.4-4.3l2.4,0.9l2.4-0.9C378,212.9,377.1,214.7,376.6,216.1z"/>
		</g>
	</g>
</g>
<g>
	<g>
		<line class="st3" x1="383.6" y1="189.6" x2="396.7" y2="205.8"/>
		<g>
			<path class="st4" d="M398.6,208.1c-1.3-0.8-3.1-1.6-4.5-1.8l2.4-0.8l1.3-2.2C397.7,204.7,398.1,206.7,398.6,208.1z"/>
		</g>
	</g>
</g>
<g>
	<g>
		<line class="st3" x1="368.6" y1="179.6" x2="349.4" y2="171.3"/>
		<g>
			<path class="st4" d="M346.6,170.1c1.5,0.1,3.5-0.1,4.9-0.5l-1.7,1.8l-0.1,2.5C348.9,172.7,347.7,171.2,346.6,170.1z"/>
		</g>
	</g>
</g>
<circle class="st3" cx="377.1" cy="220.6" r="4.5"/>
<circle class="st3" cx="401.1" cy="211.6" r="4.5"/>
<circle class="st3" cx="342.9" cy="168.9" r="4.5"/>
<rect x="297.5" y="137.9" class="st11" width="140" height="93"/>
<text transform="matrix(1 0 0 1 326.3657 148.9099)" class="st0 st1">6. Calculate TF activity</text>
<path class="st19" d="M34,294h62c6.6,0,12,5.4,12,12v5c0,6.6-5.4,12-12,12H34c-6.6,0-12-5.4-12-12v-5C22,299.4,27.4,294,34,294z"/>
<text transform="matrix(1 0 0 1 28.3665 302.8001)" class="st0 st6">Gene</text>
<text transform="matrix(1 0 0 1 28.3665 310.0001)" class="st0 st6">program</text>
<g>
	<path class="st20" d="M396.5,120.5h-31c-6.6,0-12-5.4-12-12v-31c0-6.6,5.4-12,12-12h31c6.6,0,12,5.4,12,12v31
		C408.5,115.1,403.1,120.5,396.5,120.5z"/>
</g>
<path class="st21" d="M484.5,120.5h-62c-6.6,0-12-5.4-12-12v-31c0-6.6,5.4-12,12-12h62c6.6,0,12,5.4,12,12v31
	C496.5,115.1,491.1,120.5,484.5,120.5z"/>
<text transform="matrix(0 -1 1 0 31.5596 193.0041)" class="st0 st6">target</text>
</svg>
